<?xml version="1.0" encoding="utf-8"?>
<!-- Generator: Adobe Illustrator 21.0.0, SVG Export Plug-In . SVG Version: 6.00 Build 0)  -->
<svg version="1.1" id="Layer_1" xmlns="http://www.w3.org/2000/svg" xmlns:xlink="http://www.w3.org/1999/xlink" x="0px" y="0px"
	 viewBox="0 0 2000 2000" style="enable-background:new 0 0 2000 2000;" xml:space="preserve">
<style type="text/css">
	.st0{fill:#F1F2F2;}
	.st1{fill:#E6E7E8;}
</style>
<g>
	<g>
		<path class="st0" d="M673.6,1352.7c4.6,0,9.1,0.1,13.7,0c2,0,2.8,0.4,2.7,2.6c-0.1,7.6-0.1,15.3,0,22.9c0,2.2-0.6,2.6-2.7,2.6
			c-30.8-0.1-61.7-0.1-92.5,0c-1.9,0-2.6-0.4-2.5-2.4c0.1-7.7,0.1-15.5,0-23.2c0-2,0.7-2.5,2.5-2.4c3.6,0.1,7.3,0,10.9,0
			c1.1,0,2.3,0.3,2.3-1.6c0-12.4,0-24.7,0-37.6c-4.7,3.2-9.1,6.1-13.4,9.2c-5.4,3.9-11.1,7.4-16.8,10.8
			c-10.1,6.1-20.5,11.7-31.2,16.6c-8.5,3.9-17.1,7.4-25.9,10.6c-14.7,5.3-29.7,9.7-44.9,12.8c-11.4,2.3-22.8,4.3-34.4,5.2
			c-13.6,1.1-27.2,2.1-40.8,1.7c-12.7-0.4-25.4-1-38-2.4c-15.5-1.8-30.8-4.7-45.8-8.5c-15.3-3.9-30.4-8.9-45-14.9
			c-15.9-6.5-31.3-14.1-46.1-22.9c-18.8-11.2-36.6-23.8-52.9-38.4c-7.5-6.7-14.7-13.7-21.8-20.9c-10.3-10.4-19.7-21.6-28.6-33.2
			c-7.9-10.3-15-21.4-21.6-32.6c-8.1-13.7-15.2-27.8-21.3-42.4c-5.1-12.2-9.6-24.6-13.2-37.4c-2.8-10.2-5.3-20.4-7.5-30.7
			c-3-13.4-4.7-27-5.8-40.6c-1.3-16.5-1.2-33.1-0.4-49.8c0.7-14.6,2.6-29.1,5.2-43.5c2.2-12.3,5.3-24.5,8.9-36.6
			c3.9-12.8,8.4-25.4,13.6-37.6c6.6-15.5,14.3-30.5,23.2-44.8c8.8-14.3,18.5-27.9,29.2-40.8c7.6-9.1,15.4-17.9,23.9-26.2
			c9-8.8,18.3-17.1,28.1-24.9c11.7-9.3,23.8-18,36.6-25.8c15.5-9.4,31.6-17.7,48.4-24.6c14.7-6,29.6-11.1,44.9-15.2
			c13.5-3.7,27.2-6.2,40.9-8.5c8.3-1.4,16.9-1.8,25.4-2.4c12.5-0.9,25-0.7,37.5-0.5c13.8,0.3,27.5,1.5,41.2,3.8
			c10.9,1.8,21.7,3.8,32.4,6.5c16.4,4.1,32.5,9.5,48.2,16c10.1,4.2,20,8.8,29.6,13.9c4,2.1,7.9,4.2,11.8,6.5c1.7,1,2.5,0.7,3.4-0.8
			c2.5-4.1,5.1-8.2,7.7-12.3c7.4,4.7,14.7,9.3,22.1,13.8c1.1,0.7,2.1,0.8,0.9,2.6c-5.1,7.7-9.8,15.7-14.7,23.5
			c-5.6,8.9-11.2,17.7-16.7,26.5c-5.7,9.1-11.5,18.3-17.2,27.5c-1.4,2.2-2.4,4-5.6,1.6c-5.9-4.3-12.2-8.1-18.5-11.7
			c-1.9-1.1-1.8-2.2-0.8-3.4c2.1-2.3,2.9-5.4,4.9-7.7c1-1.2,0.8-1.8-0.7-2.7c-9.9-5.7-20.2-10.8-30.7-15.3
			c-15.4-6.6-31.2-11.8-47.6-15.5c-15.5-3.5-31-5.8-46.8-6.8c-13.8-0.9-27.5-0.7-41.2,0.3c-16.5,1.2-32.7,4.1-48.7,8.3
			c-21.2,5.5-41.4,13.5-60.8,23.6c-13,6.8-25.4,14.5-37.1,23.2c-8.7,6.5-17,13.5-25.1,21c-12.1,11.1-23.1,23.2-33.1,36.2
			c-9.1,11.8-17.1,24.4-24.3,37.5c-8.9,16.4-16.3,33.5-21.8,51.4c-4.2,13.8-7.3,27.8-9.6,42c-3.2,19.1-3.5,38.2-3.1,57.4
			c0.4,16.1,2.7,32,6.2,47.7c3.6,16.1,8.4,31.8,14.8,47.1c5.5,13.2,11.8,26,19.2,38.3c7.9,13.1,16.7,25.6,26.6,37.3
			c9,10.6,18.5,20.6,28.9,29.8c5.1,4.5,10.4,8.6,15.5,13.1c1.4,1.3,2.9,1.5,4.7,0.8c12.2-4.2,24.5-8.2,36.4-13.1
			c8.4-3.4,17-6.4,25.4-9.9c13.4-5.5,26.7-11.2,39.8-17.5c9.5-4.6,19.2-8.9,28.6-13.6c13.1-6.6,26.1-13.4,39-20.5
			c12.9-7.1,25.8-14.3,38.4-21.8c13.4-8,26.6-16.4,39.6-25c9.8-6.4,19.4-13.1,28.9-19.9c8.1-5.8,16.1-11.9,24.1-18
			c7.2-5.5,14.3-11.2,21.4-17c9.8-7.9,19.3-16.3,28.6-24.9c7.6-7.1,15.3-14.3,22.4-22c8.6-9.1,17.1-18.3,24.5-28.4
			c3.8-5.2,7.6-10.3,11.5-15.4c0,1.4,0.1,2.7,0.1,4.1c0,118.3,0,236.6,0,355c0,0.7,0.1,1.4,0,2c-0.3,2.2,0.5,3,2.8,3
			C653.6,1352.7,663.6,1352.7,673.6,1352.7z M553.3,1125.3c-1.1,0.6-1.7,0.9-2.2,1.3c-12,9.4-24.3,18.3-37,26.7
			c-3.9,2.6-5.4,5.4-5.4,10.4c0.3,42.3,0.2,84.7,0.2,127c0,1.2,0,2.5,0,3.9c0.8-0.2,1.3-0.4,1.8-0.6c14-5.6,27.3-12.5,40.3-20
			c1.9-1.1,2.3-2.7,2.3-4.8c-0.1-41-0.1-82-0.1-122.9C553.3,1139.5,553.3,1132.6,553.3,1125.3z M568.4,1262.5
			c3.9-2.8,7.4-5,10.6-7.6c9-7.2,17.6-14.8,25.9-22.8c1.9-1.8,2.9-3.9,2.9-6.8c-0.1-47.3-0.1-94.6-0.1-142c0-1.2,0.5-2.5-0.6-3.7
			c-3.5,3.9-7.6,7-11.4,10.5c-7.9,7.1-16,14.2-24.4,20.7c-2.1,1.6-3,3.4-3,6.2c0.1,47.2,0.1,94.4,0.1,141.6
			C568.4,1259.8,568.4,1260.9,568.4,1262.5z M494.5,1167.1c-1.3,0.7-2.3,1-3.1,1.5c-12,8.2-24.4,15.7-36.9,22.9
			c-3.5,2-5.1,4.2-5.1,8.6c0.2,35.6,0.1,71.2,0.1,106.8c0,1.3-0.3,2.7,0.3,4c14.6-1.8,28.6-6.1,42.6-10.1c2-0.6,2.1-1.7,2.1-3.3
			C494.5,1254.3,494.5,1211,494.5,1167.1z M435.1,1203.1c-14.1,7.6-27.3,15.3-41,22c-2.4,1.2-3.4,2.5-3.4,5.3
			c0.1,20.3,0.1,40.5,0.1,60.8c0,6.9,0.1,13.9,0,20.8c0,2.1,0.6,2.8,2.7,2.7c2.8-0.2,5.7,0,8.5,0c9.4,0.1,18.9-0.2,28.3-0.8
			c4.9-0.3,4.9-0.4,4.9-5c0-33.9,0-67.8,0-101.8C435.1,1205.9,435.1,1204.7,435.1,1203.1z M375.7,1234.7
			c-14.1,6.5-27.6,12.9-41.2,19c-2.8,1.3-3.3,2.9-3.2,5.7c0.1,12.7,0,25.5,0.1,38.2c0,2.6-0.7,5.7,0.5,7.7c1,1.8,4.3,1.3,6.6,1.9
			c11.5,3.1,23.2,4.8,35,6c2.1,0.2,2.4-0.4,2.4-2.2c-0.1-8.7,0-17.3,0-26C375.7,1268.4,375.7,1251.8,375.7,1234.7z M316.2,1301.1
			c0-13,0-26.1,0-39.3c-15.9,6.6-31.8,12.8-48.1,18.8C276.7,1286.4,307.2,1299.2,316.2,1301.1z"/>
		<path class="st1" d="M673.6,1352.7c-10,0-20,0-30,0.1c-2.3,0-3.1-0.8-2.8-3c0.1-0.7,0-1.4,0-2c0-118.3,0-236.6,0-355
			c0-1.4-0.1-2.7-0.1-4.1c1.2,0.1,1.6,1.2,2.2,2c8.8,12.7,18.6,24.6,29.2,35.9c1,1.1,1.6,2.2,1.5,3.6c0,0.9,0,1.8,0,2.7
			c0,105,0,210,0,315C673.6,1349.5,673.6,1351.1,673.6,1352.7z"/>
	</g>
	<g>
		<path class="st0" d="M831.7,1073.9c17.9,0.5,39.9-1,61.8,0.7c20.7,1.6,40.2,7.2,56.3,21c38.4,32.7,28.8,93-18.1,114.7
			c-7.9,3.7-16.1,6.3-24.7,7.7c-2.8,0.5-5,1-2.2,4.3c20.8,24.1,39,50.6,63.8,71.1c13.5,11.2,28,20.5,45.5,24c6.1,1.2,3.4,6,3.7,9.4
			c0.5,4.5-3.1,3.2-5.4,3.2c-21.7,0.1-43.4-0.1-65.2,0.1c-4.2,0-6.6-1.3-9-4.6c-24.3-33.5-48.9-67-73.3-100.4
			c-3.2-4.4-13.7-7.2-18.6-5c-1.6,0.7-1.6,1.9-1.6,3.1c0.1,20.6-1.2,41.3,2,61.8c3.9,25,12.9,32.5,38.2,33.2c5.9,0.2,9,5.1,6.6,10.4
			c-0.9,2-2.5,1.4-3.8,1.4c-42.6,0-85.1,0-127.7,0.1c-5.2,0-4.1-3.2-4.1-6c0-2.8-1.2-6.4,4-6.1c3.4,0.2,6.9-0.3,10.4-0.8
			c19.1-2.3,27.2-10.5,30.1-29.8c2-13.1,2.2-26.4,2.3-39.6c0.3-30.8,0.4-61.7,0-92.5c-0.2-14.5,0.1-29.1-3.2-43.4
			c-4.1-17.4-12.6-24.5-30.4-25.6c-2.2-0.1-4.4-0.5-6.5-0.2c-5.4,0.8-7-1.3-6.9-6.7c0.1-4.8,1.8-5.7,6.1-5.6
			C783.9,1074,805.8,1073.9,831.7,1073.9z M844.8,1146.7c0,15.2,0,30.4,0,45.6c0,0.2,0,0.4,0,0.7c-0.1,2.9-0.4,5.5,4.1,5.4
			c11.1-0.3,22.2,0.3,33.2-0.5c23.8-1.6,38.9-14.8,43.5-36.7c1.3-6.2,1.5-12.5,1.2-18.8c-1.1-28.5-20.1-46.9-48.4-46.9
			c-9.6,0-19.1,0.2-28.7-0.1c-4.1-0.1-5.1,1.1-5.1,5.1C845,1115.8,844.8,1131.2,844.8,1146.7z"/>
		<path class="st0" d="M1191.7,1064c67.9,0,126.4,44.8,141,109.1c9.5,42-0.3,80.2-27.1,113.6c-64.8,80.5-193.8,68.6-243.1-22.1
			c-34-62.6-11.2-141.4,51.9-179.3C1138.3,1070.7,1163,1064,1191.7,1064z M1287.3,1205.1c-0.1-24.9-4-46.1-13.7-65.9
			c-16-32.8-41.8-51.6-78.8-52.7c-37.2-1.1-65.8,14.4-83.1,47.6c-19.9,38.2-21.6,78.1-7.5,118.5c12.6,36.1,36.8,59.5,76.1,63.7
			c31,3.3,58.1-5.1,78.8-29.5C1279.7,1262.4,1286.5,1233.2,1287.3,1205.1z"/>
		<path class="st0" d="M1441.8,1073.9c20.9,0,41.7,0.2,62.6-0.1c5-0.1,5.5,2.1,5.5,6.2c0,4-0.2,6.1-5.4,6.3
			c-28.9,0.8-38.5,9.4-40.2,38.7c-2.4,42.7-2.8,85.5-0.2,128.2c2.3,37.4,30.4,61,69.9,60.1c27.2-0.6,49.7-9.7,62.7-35.3
			c6.2-12.2,8.2-25.5,8.2-39.1c-0.1-34.3-0.1-68.6-0.3-103c0-7.6-0.9-15.1-2.4-22.6c-3.7-17.9-12.4-25.6-30.7-26.9
			c-2.6-0.2-5.2-0.5-7.8-0.2c-4.6,0.5-5.8-1.4-5.9-5.8c-0.1-5.2,1.5-6.6,6.6-6.5c36.3,0.2,72.6,0.2,108.8,0c4.2,0,6.3,0.7,6.1,5.6
			c-0.2,4.5-0.4,7.7-6.2,6.8c-1.9-0.3-3.9,0.1-5.8,0.2c-19.7,1-29.6,10-32.6,29.6c-1.8,11.6-2.3,23.3-2.4,35
			c-0.2,28.9,0,57.8-0.1,86.7c-0.1,59.4-42.5,101.4-102,101.9c-27.1,0.2-52.1-5.2-73.7-22.4c-20.3-16.1-30.6-37.8-34.4-62.9
			c-2.5-16.4-0.9-33-1.3-49.4c-0.5-26.7,1-53.4-1.3-80.1c-0.4-4.1-0.8-8.2-1.7-12.2c-3.6-17-12.5-24.6-30.2-26
			c-2.2-0.2-4.3-0.2-6.5-0.3c-7-0.2-9-3.2-7.3-10c0.9-3.3,3.4-2.2,5.2-2.2C1400.1,1073.8,1421,1073.9,1441.8,1073.9z"/>
		<path class="st0" d="M1799.3,1073.9c17.9,0.5,39.9-1,61.8,0.7c20.5,1.6,39.7,7.3,55.8,20.8c39.1,33,28.9,93.7-19.2,114.8
			c-15.3,6.7-31.5,9.5-48.1,9.7c-10.9,0.1-21.7,0-32.6,0c-2.7,0-5.1-0.3-5.1,3.8c0.3,20.6-1.1,41.3,2.2,61.7
			c3.9,24.6,12.9,31.9,37.9,32.7c6.2,0.2,9.1,4.5,6.8,10.3c-1.2,2.9-3.7,1.6-5.6,1.6c-28.2,0.1-56.5,0.1-84.7,0.1
			c-13,0-26.1-0.2-39.1,0.1c-4.4,0.1-6.7-0.5-6.4-5.8c0.2-4.5,0.8-6.6,6-6.3c4.7,0.3,9.5-0.5,14.2-1.4c12.7-2.3,20-10.2,23.1-22.6
			c3.5-14.3,3.6-28.9,3.6-43.3c0.1-39.9,1-79.9-0.8-119.8c-0.3-6.5-0.9-13-2.5-19.3c-4.1-16.8-12.2-23.7-29.4-25.1
			c-2.8-0.2-5.7-0.6-8.4-0.3c-4.7,0.5-5.7-1.4-5.8-5.8c-0.1-5.1,1.3-6.6,6.5-6.5C1751.5,1074,1773.4,1073.9,1799.3,1073.9z
			 M1812,1146.4c0,15.4,0,30.8,0,46.3c0,0.2,0,0.4,0,0.7c-0.1,2.7-0.3,5.1,3.8,5c11.3-0.3,22.6,0.3,33.9-0.5
			c23.5-1.7,38.5-14.8,43.1-36.5c1.4-6.7,1.6-13.4,1.2-20.1c-1.8-28.4-20.4-45.8-48.7-45.8c-9.3,0-18.7,0.2-28-0.1
			c-4.4-0.2-5.4,1.3-5.3,5.5C1812.2,1116,1812,1131.2,1812,1146.4z"/>
		<path class="st0" d="M1382.9,775.9c16.9,0,33.9,0,50.8,0c3.3,0,5.7-0.1,5.6,4.6c-0.1,4.3-1.2,5.9-5.5,5.5
			c-2.1-0.2-4.3,0.2-6.5,0.4c-15.1,1.4-21.9,7.9-24.8,22.9c-1.8,9.7-2.3,19.5-2.2,29.2c0.1,34.7-1.2,69.5,1,104.2
			c0.3,4.3,0.7,8.7,1.7,12.9c3.2,15,11.4,20.9,28.7,21.7c2.6,0.1,6.6-1.7,7.4,2.9c0.7,4.3,0.6,7.5-5.9,7.4
			c-33.4-0.4-66.9-0.2-100.4-0.2c-3.4,0-6.1,0.5-6.1-4.7c0-5.3,2.7-5.5,6.5-5.5c3.7,0,7.3-0.3,11-1.1c9.8-2.1,15.4-8.1,18.1-17.5
			c3.2-11.4,2.8-23.2,3.2-34.9c0.4-11.3-0.1-22.6,0.2-33.9c0.1-4.1-0.9-5.7-5.3-5.7c-33.5,0.2-66.9,0.1-100.4,0.1
			c-3.2,0-5.3,0.3-5.2,4.4c0.4,20.8-0.9,41.7,1.9,62.4c2.5,18.6,10.4,25.4,29.3,26.2c3,0.1,7.3-1.7,7.5,4.3c0.2,4.2-0.6,6-5.5,6
			c-33.9-0.2-67.8-0.1-101.7-0.1c-3,0-5.5,0.4-5.3-4.1c0.1-3.8,0.5-6.2,5.1-6.1c26,0.5,31.7-11.9,32.8-33.8c2-41.9,1.9-83.8,0-125.6
			c-0.2-3.7-0.8-7.3-1.6-10.9c-3.4-15-11.1-20.2-30.6-20.7c-3.3-0.1-5.6,0.1-5.7-4.6c-0.1-5,1.9-5.5,6.1-5.5
			c33.5,0.1,66.9,0.1,100.4,0.1c3.3,0,6.3-0.6,6.2,4.7c-0.1,4.5-1.7,5.2-5.7,5.3c-23.1,0.6-30.7,8.1-32.2,32.4
			c-0.9,14.3-0.5,28.6-1,43c-0.1,3.8,1.2,4.8,4.8,4.7c33.7-0.1,67.3-0.1,101,0c2.8,0,5.1,0.2,5-3.9c-0.2-16.3,0.7-32.6-1.7-48.8
			c-3.1-21.4-9.6-26.9-31.3-27.5c-3.7-0.1-6-0.2-5.9-5.1c0.1-4.2,1.5-5,5.3-5C1349.1,776,1366,775.9,1382.9,775.9z"/>
		<path class="st0" d="M1776.3,775.9c15.4,0,30.8,0,46.3,0c15,0,29.4,2.8,42.7,9.7c19.5,10.1,30.6,25.8,31.4,48.1
			c0.9,23.8-10.1,41.1-30.5,52.7c-7.4,4.2-15.4,6.8-23.8,8.3c-2.7,0.5-4.4,1.1-2,3.9c18.8,21.5,34.9,45.6,58.3,62.8
			c9.5,7,19.6,12.9,31.3,15.2c5.5,1.1,2.8,5,3.2,7.7c0.6,3.5-2.3,2.9-4.3,2.9c-18,0-36.1-0.1-54.1,0.1c-4,0.1-5.8-2.1-7.7-4.8
			c-20.1-27.5-40.3-55-60.4-82.4c-2.5-3.4-10.8-5.5-14.5-3.8c-1.8,0.8-1.7,2.3-1.7,3.8c0.1,16.9-0.6,33.9,1.8,50.7
			c2.6,18.7,10.4,25.5,29.3,26.3c2.6,0.1,6.6-1.8,7.4,2.9c0.7,4.3,0.6,7.5-5.9,7.4c-33.4-0.4-66.9-0.2-100.3-0.2
			c-3.3,0-6.2,0.7-6.2-4.7c0-5.3,2.6-5.6,6.4-5.6c1.3,0,2.6-0.1,3.9-0.1c16-0.9,23.6-7.6,26.5-23.2c1.9-9.9,2.2-19.9,2.2-29.8
			c-0.1-34.9,1.3-69.9-1-104.8c-0.3-4.1-0.7-8.2-1.6-12.2c-3.3-14.9-10.7-19.9-29.9-21c-2.4-0.1-6,1.4-6.3-3.3
			c-0.4-4.6,0.3-6.9,6-6.8C1740.7,776.2,1758.5,775.9,1776.3,775.9z M1790.3,835.5c0,12.6,0.1,25.2-0.1,37.8c-0.1,3.9,1,5.5,5.1,5.3
			c6.9-0.3,13.9,0.1,20.8-0.1c26.8-0.9,41.1-14.1,42.2-40.1c1-24.7-11.6-45.3-41.7-45.3c-6.7,0-13.5,0.4-20.2-0.1
			c-5.5-0.4-6.5,1.8-6.3,6.7C1790.5,811.6,1790.3,823.6,1790.3,835.5z"/>
		<path class="st0" d="M842.5,987.2c-28.2,0-56.5,0-84.7-0.1c-2.9,0-6.9,1.9-7.1-4.3c-0.1-6.2,3.3-5.9,7.4-5.9
			c3.9,0,7.8-0.4,11.6-1.4c8.6-2.2,13.8-7.6,16.4-15.9c3.5-11.6,3.6-23.6,3.6-35.5c0.1-34.7,1.1-69.5-0.8-104.2
			c-0.1-2-0.1-3.9-0.4-5.8c-2.8-20.9-9.8-27.3-30.9-28.2c-3.9-0.2-7.3,0.1-6.8-5.7c0.3-3.3,1.1-4.5,4.5-4.4
			c8.7,0.2,17.4,0.1,26.1,0.1c45,0,89.9,0.1,134.9-0.1c4.9,0,6.7,1.1,6.9,6.3c0.6,15.8,1.8,31.6,2.8,47.4c0.1,2,1.3,5-2.2,4.8
			c-3-0.2-7.3,2.5-8.6-2.9c-0.7-2.7-1.5-5.4-2.2-8.2c-5.1-19.8-12.6-26.6-32.5-28.8c-17.1-1.9-34.2-1.3-51.4-1.4
			c-3.5,0-4.5,1.3-4.4,4.6c0.1,21.3,0.1,42.6,0,63.9c0,2.7,0.3,4.5,3.8,4.5c10.2-0.2,20.4-0.1,30.5-2.1c14.5-2.9,19.4-8.5,20.9-23.2
			c0.3-2.6,0.3-5.2,0.2-7.8c-0.1-3.5-0.2-6.1,4.9-6.1c5.1,0,5.4,2.3,5.4,6.3c-0.1,27.8-0.1,55.6,0,83.4c0,4.1-0.6,6.2-5.5,6.3
			c-5.2,0.1-4.9-2.7-4.8-6.1c0.1-2.2,0-4.3-0.2-6.5c-1.3-16.1-7.8-22.7-23.8-24.8c-8.9-1.2-17.8-1.1-26.6-1.5
			c-3.1-0.1-4.8,0.5-4.8,4.2c0.3,18.6-0.7,37.3,2,55.9c2.2,15.6,8.6,22.9,24,24.3c16,1.4,32,1.3,48-1.5c13.5-2.4,21.7-10,25.3-23
			c1-3.6,2.4-7.1,2.7-10.7c0.5-5.2,3.6-5.6,7.7-5.4c2.8,0.1,3.8,1.1,3.6,3.9c-1.2,17.1-2.4,34.2-3.3,51.3c-0.2,5-3.2,4.1-6.2,4.1
			C899.9,987.2,871.2,987.2,842.5,987.2z"/>
		<path class="st0" d="M1576.5,987.2c-28.7,0-57.3,0-86,0c-3,0-5.9,0.7-5.8-4.3c0.1-4.6,1.5-6.4,6-5.9c1.7,0.2,3.5-0.1,5.2-0.2
			c15.2-0.9,22.7-7.7,25.6-22.8c1.9-9.9,2.3-19.9,2.2-29.8c0-34.9,1.2-69.9-0.9-104.8c-0.1-2-0.1-3.9-0.4-5.8
			c-3.2-20.9-9.7-26.7-31.4-27.6c-3.9-0.2-6.6-0.4-6.2-5.6c0.3-3.3,0.9-4.5,4.4-4.5c54.3,0.1,108.6,0.1,162.9,0
			c3.1,0,4.6,0.7,4.8,4.3c0.9,16.7,2.1,33.3,3.2,50c0.1,1.9,0.6,4.5-2.3,4.2c-2.9-0.2-6.8,2.1-8.5-2.3c-1.1-2.8-1.6-5.8-2.3-8.8
			c-5.1-19.8-12.6-26.6-32.5-28.8c-17.1-1.9-34.3-1.3-51.4-1.4c-3.4,0-4.5,1.3-4.5,4.6c0.1,21.3,0.1,42.6,0,63.9
			c0,2.6,0.2,4.6,3.7,4.5c10.2-0.2,20.4-0.1,30.5-2.1c14.8-2.9,19.7-8.7,21-23.8c0.2-2.4,0.2-4.8,0.2-7.2c-0.1-3.4-0.3-6.1,4.8-6.1
			c5,0,5.5,2.2,5.5,6.3c-0.1,27.8-0.1,55.6,0,83.4c0,4.1-0.4,6.3-5.5,6.3c-5.1,0.1-5-2.6-4.9-6.1c0.1-1.5,0-3-0.1-4.6
			c-0.8-17.9-7.4-24.7-25.2-26.9c-8.4-1.1-16.9-0.8-25.3-1.3c-3-0.2-4.9,0.4-4.8,4.1c0.3,18.6-0.7,37.3,2,55.9
			c2.2,15.8,8.9,23.2,24.6,24.4c15.8,1.2,31.6,1.2,47.4-1.6c13.8-2.4,22-10.4,25.5-23.6c0.9-3.3,2.3-6.7,2.6-10.1
			c0.4-5.2,3.5-5.6,7.6-5.4c2.7,0.1,3.9,0.9,3.7,3.9c-1.2,17.1-2.4,34.2-3.3,51.3c-0.2,4.9-3.1,4.2-6.1,4.2
			C1633.8,987.2,1605.1,987.2,1576.5,987.2z"/>
		<path class="st0" d="M993.3,953.3c0-11.7-0.1-23.5,0.1-35.2c0-2.7-1.9-6.7,3.9-6.9c4.8-0.1,6.1,1.5,6.7,6.1
			c2.2,16.3,8.4,31,20.9,42.3c16.1,14.6,35.4,19.4,56.3,15.1c26.2-5.3,34.7-33.6,16.7-53.3c-10.6-11.7-24.8-18-38.4-25.2
			c-10.9-5.8-22.2-10.9-32.7-17.4c-17.8-11-29.9-26.3-32.2-47.9c-3.2-30.2,15.7-55.6,45.7-61.5c20-3.9,38.9-0.6,56.2,10.1
			c4.3,2.7,6.4,2.2,8.4-2c1-2.2,2.5-4.2,3-6.5c1-5.1,4.8-3.4,7.7-3.4c3.9,0,2.8,3.1,2.8,5.3c0.1,23.9,0,47.8,0,71.7
			c0,2.9,0.5,5.8-4.1,5.5c-3.2-0.2-6,0.6-6.7-4.5c-2.2-16-6.5-31.4-17.2-44.2c-12.7-15.1-35.1-19.9-52.7-11.1
			c-18.1,9.1-21,30.7-5.8,44.9c10.8,10,24.1,16.2,36.9,23c10.1,5.4,20.5,10.5,30.5,16c16.8,9.2,29.9,21.8,34.8,40.9
			c9.1,35-15.4,71.8-52.1,78.6c-23.6,4.4-45.2-0.8-65.4-13c-4.6-2.8-7.2-2.7-9.4,2.3c-1.2,2.8-3.3,5.3-3.9,8.2c-1,4.7-4.2,4.1-7.4,4
			c-4.1-0.1-2.6-3.3-2.6-5.3C993.2,977.7,993.3,965.5,993.3,953.3z"/>
	</g>
</g>
</svg>
