<svg width="128" height="128" viewBox="0 0 128 128" version="1.1" xmlns="http://www.w3.org/2000/svg" xmlns:xlink="http://www.w3.org/1999/xlink">
<g id="logo-canvas" transform="matrix(2 0 0 2 -2070 552)">
<g id="logo">
<use xlink:href="#logo-path0_fill" transform="translate(1035 -276)" fill="#FFFFFF"/>
</g>
</g>
<defs>
<path id="logo-path0_fill" fill-rule="evenodd" d="M 64 64L 64 32L 56.9469 32C 56.858 38.1302 36.8218 47.0775 25.3729 51.6923L 25.3187 51.6923L 25.3187 51.7142C 23.1206 52.5996 21.2422 53.3242 19.8869 53.837C 12.2204 49.5753 7.03296 41.3934 7.03296 32C 7.03296 18.2111 18.2111 7.03297 32 7.03297C 36.2313 7.03297 40.2167 8.08554 43.7088 9.94314L 41.3187 13.1868L 46.4912 17.5088L 49.6544 14.3456L 53.0779 10.9221L 54.6274 9.37258C 48.8366 3.58172 40.8366 0 32 0C 14.3269 0 0 14.3269 0 32C 0 49.6731 14.3269 64 32 64C 42.0972 64 51.1022 59.3234 56.967 52.018L 56.967 64L 64 64ZM 55.2088 41.2215C 55.625 40.175 55.9724 39.0936 56.2456 37.983C 55.9103 38.2066 55.5644 38.4326 55.2088 38.6606L 55.2088 41.2215ZM 22.8087 55.2208C 23.4795 54.9204 24.3281 54.5381 25.3187 54.0869L 25.3187 56.063C 24.4627 55.8259 23.6251 55.5442 22.8087 55.2208ZM 27.0769 56.4818L 27.0769 53.2815C 27.6349 53.0246 28.2224 52.7528 28.8352 52.4675L 28.8352 56.7684C 28.2424 56.6934 27.656 56.5976 27.0769 56.4818ZM 30.5934 56.9281L 30.5934 51.6448C 31.1642 51.3763 31.7512 51.0988 32.3516 50.8132L 32.3516 56.9646C 32.2346 56.9662 32.1174 56.967 32 56.967C 31.528 56.967 31.059 56.9539 30.5934 56.9281ZM 34.1099 56.8791L 34.1099 49.9721C 34.6875 49.6942 35.2743 49.4103 35.8681 49.1211L 35.8681 56.6692C 35.2884 56.7594 34.7021 56.8296 34.1099 56.8791ZM 37.6264 56.3305L 37.6264 48.2594C 38.2086 47.9722 38.7953 47.6809 39.3846 47.3862L 39.3846 55.8569C 38.8072 56.0354 38.2208 56.1936 37.6264 56.3305ZM 41.1428 55.2399L 41.1428 46.5002C 41.729 46.2026 42.3157 45.9024 42.9011 45.6002L 42.9011 54.4678C 42.327 54.7469 41.7405 55.0046 41.1428 55.2399ZM 44.6593 53.5242L 44.6593 44.6842C 45.2494 44.3739 45.8362 44.0624 46.4176 43.7502L 46.4176 52.386C 45.8487 52.7891 45.2621 53.1689 44.6593 53.5242ZM 48.1758 51.0189L 48.1758 42.7952C 48.7708 42.4682 49.3576 42.1413 49.9341 41.8154L 49.9341 49.3702C 49.3749 49.9474 48.7881 50.4977 48.1758 51.0189ZM 51.6923 47.35L 51.6923 40.8055C 52.2945 40.4537 52.8816 40.1041 53.4506 39.7578L 53.4506 44.7835C 52.9172 45.6766 52.3296 46.5336 51.6923 47.35Z"/>
</defs>
</svg>
