<?xml version="1.0" encoding="utf-8"?>
<!-- Generator: Adobe Illustrator 21.0.0, SVG Export Plug-In . SVG Version: 6.00 Build 0)  -->
<svg version="1.1" id="Layer_1" xmlns="http://www.w3.org/2000/svg" xmlns:xlink="http://www.w3.org/1999/xlink" x="0px" y="0px"
	 viewBox="0 0 2000 2000" style="enable-background:new 0 0 2000 2000;" xml:space="preserve">
<style type="text/css">
	.st0{fill:#FCFCFC;}
	.st1{fill:#FFFFFF;}
</style>
<path class="st0" d="M1797.1,1863.9c12.8,0,25.7,0.3,38.5,0c3.9-0.1,4.6,1.1,4.5,4.7c-0.2,22-0.2,44,0,66c0,3.3-0.6,4.5-4.2,4.5
	c-83.8-0.1-167.7-0.1-251.5,0c-3.4,0-4.5-0.7-4.4-4.3c0.2-22.2,0.2-44.3,0-66.5c0-3.5,0.9-4.4,4.4-4.4c11.2,0.2,22.3,0.1,33.5,0.1
	c1.9,0,3.5,0.2,3.5-2.7c-0.1-33.5-0.1-67-0.1-101.3c-6.7,4.8-12.8,9.2-18.9,13.6c-88.8,63.4-185.8,109.4-291.5,136.8
	c-32.9,8.5-66.1,15.1-99.8,19.7c-31.5,4.4-63.1,7.1-94.8,8.2c-31.1,1.1-62.2,0.6-93.3-1.2c-46-2.7-91.5-8.8-136.6-18.3
	c-62.6-13.2-123.4-32.6-182-58.3c-82.5-36.2-158.3-83-227.3-140.9c-98.1-82.3-176.4-180.3-234.9-294.2
	c-35.8-69.7-62.2-142.8-79.6-219c-7.2-31.5-12.7-63.4-16.5-95.5c-3.1-26.3-5.1-52.6-6.2-79c-1.4-34.5-0.9-68.9,1.6-103.3
	c8.5-118.2,38.1-231,89.1-338c31.6-66.3,70.6-128.1,116.7-185.3c38.6-47.9,81.3-91.6,128.4-131.1C528.1,229.9,584.9,191.8,646,160
	c62.1-32.4,127.1-57.6,194.9-75.4c35.7-9.4,71.9-16.7,108.5-21.7c29.5-4.1,59.1-6.8,88.8-8.2c27.1-1.3,54.3-1.5,81.4-0.4
	c138.4,5.9,269.3,40.2,392.5,103.7c13.8,7.1,27.4,14.8,41,22.5c2.9,1.6,4,1.3,5.7-1.4c6.5-10.6,13.2-21.1,19.7-31.7
	c1.5-2.4,2.5-2.9,5.1-1.3c19.1,12.1,38.2,24.1,57.4,36c2.8,1.8,3,2.9,1.2,5.6c-44.6,71-89.1,142.1-133.6,213.3
	c-2,3.2-3.3,3.5-6.4,1.4c-18.5-11.8-37-23.5-55.7-34.9c-3.7-2.3-3.7-3.9-1.5-7.2c4.8-7.2,9.1-14.7,13.9-21.9c2.1-3.1,2-4.6-1.6-6.7
	c-29.8-17-60.5-32.2-92.3-45.3c-50.4-20.7-102.4-35.8-156-45.3c-30.9-5.5-62.1-9-93.5-10.5c-24-1.1-48-1.4-71.9-0.3
	c-103.4,4.7-202.1,29-295.7,73.7c-72,34.4-137.1,79-195.3,133.7C491,495.6,440.2,561.8,400.4,636.3
	c-34.1,63.8-58.7,131.2-73.5,202.1c-6.4,30.4-10.8,61.1-13.7,92c-1.3,14.4-1.9,28.9-2.4,43.3c-0.8,20.5-0.4,40.9,0.6,61.4
	c4.4,85.6,22.4,168.3,54.6,247.8c31.5,77.7,74.6,148.3,129.1,212c34,39.7,71.8,75.5,112.9,107.7c3.8,3,6.9,3.5,11.6,2
	c75.8-24.9,150.1-53.7,223.1-85.9c189.3-83.5,368.5-184.7,535.6-306.8c83.7-61.2,163.2-127.5,235-202.6
	c32.7-34.2,63.5-70,90.3-109.2c1.6-2.3,3.1-4.7,4.6-7.1c1.4,2.1,0.7,4.5,0.7,6.8c0,318.5,0,637.1,0,955.6c0,1.5,0.1,3,0,4.5
	c-0.4,3.2,0.7,4.4,4.1,4.3C1741.1,1863.9,1769.1,1863.9,1797.1,1863.9z M1477,1256.6c-1.6,1.1-2.5,1.7-3.4,2.4
	c-36.4,27.9-73.6,54.8-111.6,80.5c-3.2,2.2-4.1,4.4-4.1,8.1c0.1,118.6,0.1,237.3,0.1,355.9c0,1.8,0,3.5,0,5.7
	c1.2-0.4,1.8-0.7,2.3-0.9c39.3-15.7,76.9-34.8,113.2-56.6c2.9-1.7,3.6-3.6,3.5-6.7c-0.1-76.6-0.1-153.3-0.1-229.9
	C1477,1362.6,1477,1310.1,1477,1256.6z M1516,1623.6c1.5-1,2.3-1.5,3.1-2c34.9-24.9,67.5-52.4,97.9-82.7c2.5-2.5,3.3-4.9,3.3-8.3
	c-0.1-129.7-0.1-259.3-0.1-389c0-1.6,0.5-3.2-0.7-5c-0.6,0.5-1.1,0.8-1.5,1.3c-31.4,29.3-64,57.3-97.5,84.3c-3,2.4-4.6,4.8-4.6,9
	c0.1,128.8,0.1,257.7,0.1,386.5C1516,1619.2,1516,1620.9,1516,1623.6z M1318.7,1368.8c-2,1.2-3.3,1.9-4.5,2.7
	c-36,23.5-72.5,46.2-109.7,67.9c-3.5,2.1-4.6,4.2-4.6,8.1c0.1,100,0.1,200,0.1,300c0,0.8,0.1,1.7,0,2.5c-0.2,2.4,0.4,3,3.1,2.6
	c37.4-6.4,74.1-15.5,110.2-27.1c4.1-1.3,5.6-3,5.6-7.5c-0.2-114.5-0.1-229-0.1-343.5C1318.7,1372.9,1318.7,1371.3,1318.7,1368.8z
	 M1160.8,1465.1c-2.1,1.1-3.5,1.8-4.9,2.6c-36.1,20.3-72.5,40.1-109.4,59c-3.3,1.7-4.4,3.5-4.4,7.2c0.1,69.3,0.1,138.7,0.1,208
	c0,5.7,0.1,11.3,0,17c0,2.1,0.3,3.4,2.9,3.4c6,0.1,12,0.6,17.9,0.7c31.3,0.6,62.5-1.1,93.7-3.9c3.6-0.3,4.2-1.9,4.2-5.1
	c-0.1-32.7-0.1-65.3-0.1-98C1160.8,1592.6,1160.8,1529.3,1160.8,1465.1z M1003,1549.1c-0.9,0.3-1.5,0.4-2.1,0.7
	c-37.6,18.4-75.5,36.2-113.9,53.1c-2.2,1-2.8,2.2-2.8,4.5c0.1,42.5,0.1,85,0,127.5c0,2.6,0.6,3.8,3.4,4.4c9.1,2,18,4.4,27,6.4
	c27.1,5.9,54.5,10.1,82,13.2c6.3,0.7,6.3,0.6,6.3-5.6c0-66.3,0-132.7,0-199C1003,1552.7,1003,1551.1,1003,1549.1z M715.1,1672
	c42.3,22.7,85.1,40.8,129.8,55c0-35.4,0-70.3,0-105.8C802.2,1639.1,759.4,1656,715.1,1672z"/>
<path class="st1" d="M1797.1,1863.9c-28,0-56,0-84,0.2c-3.4,0-4.5-1.2-4.1-4.3c0.2-1.5,0-3,0-4.5c0-318.5,0-637.1,0-955.6
	c0-2.3,0.7-4.7-0.7-6.8c2-2.2,2.4,0.4,3,1.2c13.1,19.5,27.3,38.1,42.2,56.2c12.7,15.4,25.8,30.5,39.5,45c2.7,2.9,3.9,5.8,3.9,9.8
	c-0.1,139.5-0.1,279-0.1,418.4c0.1,145.6,0.2,291.3,0.3,436.9C1797,1861.5,1797,1862.7,1797.1,1863.9z"/>
<path class="st1" d="M715.1,1672c44.4-16,87.2-32.9,129.8-50.8c0,35.5,0,70.4,0,105.8C800.2,1712.8,757.4,1694.7,715.1,1672z"/>
</svg>
